<?xml version="1.0" encoding="utf-8"?>
<!-- Generator: Adobe Illustrator 26.4.1, SVG Export Plug-In . SVG Version: 6.00 Build 0)  -->
<svg version="1.1" id="Layer_1" xmlns="http://www.w3.org/2000/svg" xmlns:xlink="http://www.w3.org/1999/xlink" x="0px" y="0px"
	 viewBox="0 0 714.8 402.9" style="enable-background:new 0 0 714.8 402.9;" xml:space="preserve">
<style type="text/css">
	.st0{fill:#11222C;}
	.st1{fill:#F1583C;}
	.st2{fill:#F28E1F;}
	.st3{fill:#F9F5F4;}
</style>
<g>
	<g>
		<circle class="st0" cx="357.6" cy="130.2" r="127.5"/>
		<g>
			<path class="st1" d="M424.4,119.5c-1.4-3.7-4.1-6.6-7.7-8.2c-7.4-3.3-16.1,0-19.4,7.4c-3.9,8.7-8.4,16.8-13.3,25.4
				c-1.1,1.9-2.1,3.8-3.2,5.7L370.1,133c-2.7-4.3-7.3-6.8-12.4-6.8h-0.2c-5.1,0-9.7,2.5-12.4,6.8l-10.7,16.9
				c-1.1-1.9-2.1-3.8-3.2-5.7c-4.8-8.6-9.4-16.8-13.3-25.4c-3.3-7.4-12-10.7-19.4-7.4c-3.6,1.6-6.3,4.5-7.7,8.2
				c-1.4,3.7-1.3,7.7,0.3,11.2c4.4,9.9,9.5,19,14.5,27.8c4.8,8.6,9.9,17.6,14,26.9c2.2,5,6.9,8.3,12.4,8.7
				c5.4,0.4,10.6-2.2,13.5-6.8l12.3-19.3l12.3,19.3c2.7,4.3,7.3,6.8,12.4,6.8c0.4,0,0.7,0,1.1,0c5.4-0.4,10.1-3.8,12.3-8.7
				c4.1-9.3,9.1-18.2,14-26.9c4.9-8.8,10.1-17.9,14.5-27.8C425.7,127.1,425.8,123.1,424.4,119.5z"/>
			<path class="st2" d="M345,133l-8.9,14c-3,5-7.4,12.2-14.2,14.9c-7.5,3-14.5-1-15.5-1.6c4.5,8.1,9.2,16.5,13,25.2
				c2.2,5,6.9,8.3,12.4,8.7c0,0,0,0,0,0c0.5,0,1,0,1.6,0c0.3,0,0.6,0,0.9-0.1c0.3,0,0.7-0.1,1-0.1c0.3,0,0.6-0.1,0.9-0.2
				c0.3-0.1,0.7-0.2,1-0.3c0.3-0.1,0.5-0.2,0.8-0.3c0.3-0.1,0.6-0.3,1-0.4c0.3-0.1,0.5-0.2,0.8-0.4c0.3-0.2,0.6-0.3,0.9-0.5
				c0.3-0.2,0.5-0.3,0.8-0.5c0.2-0.2,0.4-0.4,0.7-0.5c0.3-0.2,0.6-0.4,0.8-0.7c0.1-0.1,0.2-0.2,0.3-0.4c0.8-0.8,1.5-1.6,2.1-2.5
				l12.3-19.3l0,0l0,0l12.3,19.3c0.6,0.9,1.3,1.8,2.1,2.5c0.1,0.1,0.2,0.3,0.4,0.4c0.3,0.2,0.5,0.5,0.8,0.7c0.2,0.2,0.4,0.4,0.7,0.5
				c0.2,0.2,0.5,0.3,0.8,0.5c0.3,0.2,0.6,0.4,0.9,0.5c0.3,0.1,0.5,0.2,0.8,0.4c0.3,0.1,0.6,0.3,1,0.4c0.3,0.1,0.5,0.2,0.8,0.3
				c0.3,0.1,0.7,0.2,1,0.3c0.3,0.1,0.6,0.1,0.9,0.2c0.3,0.1,0.7,0.1,1,0.1c0.3,0,0.6,0,0.9,0.1c0.5,0,1,0,1.6,0c0,0,0,0,0,0
				c5.4-0.4,10.2-3.8,12.4-8.7c3.8-8.7,8.5-17.1,13-25.2c-1,0.6-8,4.6-15.5,1.6c-6.8-2.7-11.2-9.9-14.2-14.9l-8.9-14
				c-2.7-4.3-7.3-6.8-12.4-6.8h-0.2C352.4,126.2,347.8,128.7,345,133z"/>
			<path class="st3" d="M400.5,93.5h-85.8c-7.5,0-13.6-6.1-13.6-13.6v0c0-7.5,6.1-13.6,13.6-13.6h85.8c7.5,0,13.6,6.1,13.6,13.6v0
				C414.1,87.4,408,93.5,400.5,93.5z"/>
		</g>
		<circle class="st3" cx="357.6" cy="123.2" r="13.8"/>
		<circle class="st3" cx="357.5" cy="158.5" r="13.8"/>
	</g>
	<g>
		<g>
			<path class="st0" d="M15.2,379.1V351h-3.1c-5,0-7.3-2.3-7.3-6.3v-1c0-4.1,2.3-6.5,7.1-6.5h3.3v-7.8c0-5.8,2.9-8.5,7.9-8.5h1.6
				c4.6,0,7.8,2,7.8,8.5v7.8h10.7c5,0,7.1,2.1,7.1,6.1v1.1c0,4.3-2.3,6.5-7.3,6.5H32.2v26.1c0,6,1.9,9,6.8,9c3.5,0,6-1.8,7.6-4.1
				c0.6-0.3,4.4,2.3,4.4,6.9c0,2.6-1,4.9-3,6.8c-2.8,2.8-7.3,4.5-13.2,4.5C21.5,400.2,15.2,393,15.2,379.1z"/>
			<path class="st0" d="M119.9,361.7v28.8c0,6.4-3.4,8.4-7.9,8.4h-1.9c-4.6,0-7.9-1.9-7.9-8.4v-26.5c0-8.4-4.3-13.4-11.3-13.4
				c-8.3,0-13.4,5.4-13.4,14.3v25.6c0,6.4-3.4,8.4-7.9,8.4h-1.9c-4.6,0-7.9-1.9-7.9-8.4v-77.2c0-0.5,3-2,6.6-2c5.1,0,11,2.8,11,14.2
				v21.4c4.3-6.6,10.3-11,19.6-11C113.1,335.8,119.9,347.4,119.9,361.7z"/>
			<path class="st0" d="M224.3,361v29.5c0,6.4-3.4,8.4-7.9,8.4h-1.9c-4.6,0-7.9-1.9-7.9-8.4v-26.7c0-8.2-4.1-13.2-11.3-13.2
				c-6.1,0-10.9,3.3-13.4,8v31.8c0,6.4-3.3,8.4-7.8,8.4h-1.9c-4.8,0-8-1.9-8-8.4v-51.9c0-0.6,3.1-2,6.6-2c4.8,0,9.5,2.4,10.5,10.3
				c4.4-6.5,10.8-11,20.2-11C217.6,335.8,224.3,347.1,224.3,361z"/>
			<path class="st0" d="M237,313.3c0-0.5,3.1-2,6.8-2c5.1,0,10.9,2.8,10.9,14.2v37.7l17.1-21.1c2.9-4.1,6.6-5.6,9.8-5.6
				c5.6,0,9.9,5.1,9.4,6l-19.7,23.9l22.3,26.7c0.4,1-4.1,6-9.8,6c-3.4,0-6.9-1.4-9.9-5.6L254.7,371v19.6c0,6.4-3.3,8.4-7.8,8.4H245
				c-4.6,0-8-1.9-8-8.4V313.3z"/>
			<path class="st0" d="M296.3,386.4c0-4.5,4.9-7.4,5.4-7c4.1,4.6,11.2,8.3,20.2,8.3c6.9,0,10.7-2.4,10.7-6.3c0-4.8-4.9-5.6-13-7.4
				c-8.4-1.8-21.4-4.5-21.4-18.3c0-11.9,9.7-19.8,25.5-19.8c12.4,0,20.1,3.4,23.2,8.2c1,1.5,1.5,3.3,1.5,5c0,4.6-5.4,7.8-5.6,7.4
				c-4.1-4.8-10.8-8.3-17.9-8.3c-6.8,0-10.4,2.5-10.4,6.4c0,4.4,4.8,5.3,13,7.1c8.7,1.9,22.4,4.6,22.4,18.4c0,12.3-9.8,19.7-27,19.7
				c-9.7,0-16.7-1.9-21.1-4.6C298.2,392.8,296.3,389.8,296.3,386.4z"/>
			<path class="st0" d="M390.1,394l-15.8-52.3c-0.4-1.1,5.8-5.3,10.7-5.3c3.5,0,7.4,1.8,8.5,7.8l7.5,36.6l9.9-31.8
				c1-3.9,4.4-5.8,9.4-5.8c5,0,8.3,1.9,9.3,5.8l9.3,31.1l7.4-35.9c1-6,4.9-7.8,8.3-7.8c5,0,10.7,4.3,10.4,5.3L449.4,394
				c-1.1,4.1-5.1,5.1-9.5,5.1c-6.3,0-8.5-1.1-10.2-5.9l-9.9-31l-10,31c-1.5,4.6-4.1,5.9-10,5.9C395.4,399.2,391.5,398.2,390.1,394z"
				/>
			<path class="st0" d="M503.1,335.8c19.3,0,32.5,13.2,32.5,32.2s-13.3,32.1-32.7,32.1c-19.4,0-32.5-13-32.5-32.4
				C470.3,349,483.6,335.8,503.1,335.8z M502.9,349.6c-9.9,0-17.1,7.6-17.1,18.2c0,10.7,7.1,18.4,17.1,18.4
				c9.8,0,16.9-7.8,16.9-18.2C519.9,357.3,512.8,349.6,502.9,349.6z"/>
			<path class="st0" d="M589.2,346.1c0,7-5.4,9.5-5.6,9.3c-1.9-1.6-4.6-3-8-3c-8.5,0-12.3,7.5-12.3,19.8v18.3c0,6.4-3.3,8.4-7.8,8.4
				h-1.9c-4.8,0-8-1.9-8-8.4v-51.9c0-0.6,3-2,6.6-2s7.6,1.5,9.7,6.6c0.4,1.1,0.6,2.6,0.9,4.3c2.4-7.3,7.5-11.7,15.2-11.7
				C584.9,335.8,589.2,339.9,589.2,346.1z"/>
			<path class="st0" d="M597.3,313.3c0-0.5,3.1-2,6.8-2c5.1,0,10.9,2.8,10.9,14.2v37.7l17.1-21.1c2.9-4.1,6.6-5.6,9.8-5.6
				c5.6,0,9.9,5.1,9.4,6l-19.7,23.9l22.3,26.7c0.4,1-4.1,6-9.8,6c-3.4,0-6.9-1.4-9.9-5.6L615,371v19.6c0,6.4-3.3,8.4-7.8,8.4h-1.9
				c-4.6,0-8-1.9-8-8.4V313.3z"/>
			<path class="st0" d="M656.6,386.4c0-4.5,4.9-7.4,5.4-7c4.1,4.6,11.2,8.3,20.2,8.3c6.9,0,10.7-2.4,10.7-6.3c0-4.8-4.9-5.6-13-7.4
				c-8.4-1.8-21.4-4.5-21.4-18.3c0-11.9,9.7-19.8,25.5-19.8c12.4,0,20.1,3.4,23.2,8.2c1,1.5,1.5,3.3,1.5,5c0,4.6-5.4,7.8-5.6,7.4
				c-4.1-4.8-10.8-8.3-17.9-8.3c-6.8,0-10.4,2.5-10.4,6.4c0,4.4,4.8,5.3,13,7.1c8.7,1.9,22.4,4.6,22.4,18.4c0,12.3-9.8,19.7-27,19.7
				c-9.7,0-16.7-1.9-21.1-4.6C658.5,392.8,656.6,389.8,656.6,386.4z"/>
		</g>
	</g>
	<g>
		<circle class="st1" cx="141.9" cy="335.6" r="10.2"/>
		<circle class="st0" cx="141.9" cy="362.3" r="10.2"/>
		<circle class="st0" cx="141.9" cy="389" r="10.2"/>
	</g>
</g>
</svg>
